<mxfile type="github" version="14.2.9" host="app.diagrams.net" modified="2021-02-06T22:11:34.458Z" agent="5.0 (Windows NT 10.0; Win64; x64) AppleWebKit/537.36 (KHTML, like Gecko) Chrome/70.0.3538.102 Safari/537.36 Edge/18.18363" etag="-mHcOpcSDCEy2h51OHVu">
  <diagram id="4A-kd1NXaWiSc_JnIxec" name="Page-1">
    <mxGraphModel grid="1" shadow="0" math="0" pageHeight="1169" pageWidth="827" pageScale="1" page="1" fold="1" arrows="1" connect="1" tooltips="1" guides="1" gridSize="10" dy="480" dx="868" background="#ffffff">
      <root>
        <mxCell id="0" />
        <mxCell id="1" parent="0" />
        <mxCell id="vOoToVETaaVY2huyyPpC-1" value="Course Offering" parent="1" style="whiteSpace=wrap;html=1;align=center;" vertex="1">
          <mxGeometry as="geometry" y="830" x="94" height="40" width="100" />
        </mxCell>
        <mxCell id="vOoToVETaaVY2huyyPpC-2" value="Instructor" parent="1" style="whiteSpace=wrap;html=1;align=center;" vertex="1">
          <mxGeometry as="geometry" y="430" x="94" height="40" width="100" />
        </mxCell>
        <mxCell id="vOoToVETaaVY2huyyPpC-3" value="Students" parent="1" style="whiteSpace=wrap;html=1;align=center;" vertex="1">
          <mxGeometry as="geometry" y="830" x="664" height="40" width="100" />
        </mxCell>
        <mxCell id="vOoToVETaaVY2huyyPpC-4" value="Courses" parent="1" style="whiteSpace=wrap;html=1;align=center;" vertex="1">
          <mxGeometry as="geometry" y="430" x="664" height="40" width="100" />
        </mxCell>
        <mxCell id="vOoToVETaaVY2huyyPpC-5" value="Teaches" parent="1" style="shape=rhombus;perimeter=rhombusPerimeter;whiteSpace=wrap;html=1;align=center;" vertex="1">
          <mxGeometry as="geometry" y="420" x="370" height="60" width="120" />
        </mxCell>
        <mxCell id="vOoToVETaaVY2huyyPpC-6" value="Grades Awarded" parent="1" style="shape=rhombus;perimeter=rhombusPerimeter;whiteSpace=wrap;html=1;align=center;" vertex="1">
          <mxGeometry as="geometry" y="820" x="363.5" height="60" width="120" />
        </mxCell>
        <mxCell id="vOoToVETaaVY2huyyPpC-7" value="Erollment" parent="1" style="shape=rhombus;perimeter=rhombusPerimeter;whiteSpace=wrap;html=1;align=center;" vertex="1">
          <mxGeometry as="geometry" y="625" x="654" height="60" width="120" />
        </mxCell>
        <mxCell id="vOoToVETaaVY2huyyPpC-9" value="" parent="1" edge="1" target="vOoToVETaaVY2huyyPpC-5" style="endArrow=none;html=1;exitX=1;exitY=0.5;exitDx=0;exitDy=0;entryX=0;entryY=0.5;entryDx=0;entryDy=0;" source="vOoToVETaaVY2huyyPpC-2">
          <mxGeometry as="geometry" relative="1" height="50" width="50">
            <mxPoint as="sourcePoint" y="690" x="410" />
            <mxPoint as="targetPoint" y="640" x="460" />
          </mxGeometry>
        </mxCell>
        <mxCell id="vOoToVETaaVY2huyyPpC-10" value="" parent="1" edge="1" target="vOoToVETaaVY2huyyPpC-4" style="endArrow=none;html=1;exitX=1;exitY=0.5;exitDx=0;exitDy=0;entryX=0;entryY=0.5;entryDx=0;entryDy=0;" source="vOoToVETaaVY2huyyPpC-5">
          <mxGeometry as="geometry" relative="1" height="50" width="50">
            <mxPoint as="sourcePoint" y="449.5" x="490" />
            <mxPoint as="targetPoint" y="450" x="660" />
          </mxGeometry>
        </mxCell>
        <mxCell id="vOoToVETaaVY2huyyPpC-11" value="" parent="1" edge="1" target="vOoToVETaaVY2huyyPpC-4" style="endArrow=none;html=1;exitX=0.5;exitY=0;exitDx=0;exitDy=0;entryX=0.5;entryY=1;entryDx=0;entryDy=0;" source="vOoToVETaaVY2huyyPpC-7">
          <mxGeometry as="geometry" relative="1" height="50" width="50">
            <mxPoint as="sourcePoint" y="560" x="500" />
            <mxPoint as="targetPoint" y="560" x="674" />
          </mxGeometry>
        </mxCell>
        <mxCell id="vOoToVETaaVY2huyyPpC-12" value="" parent="1" edge="1" target="vOoToVETaaVY2huyyPpC-7" style="endArrow=none;html=1;exitX=0.5;exitY=0;exitDx=0;exitDy=0;entryX=0.5;entryY=1;entryDx=0;entryDy=0;" source="vOoToVETaaVY2huyyPpC-3">
          <mxGeometry as="geometry" relative="1" height="50" width="50">
            <mxPoint as="sourcePoint" y="837" x="664" />
            <mxPoint as="targetPoint" y="655" x="771" />
          </mxGeometry>
        </mxCell>
        <mxCell id="vOoToVETaaVY2huyyPpC-13" value="" parent="1" edge="1" target="vOoToVETaaVY2huyyPpC-6" style="endArrow=none;html=1;exitX=0;exitY=0.5;exitDx=0;exitDy=0;entryX=1;entryY=0.5;entryDx=0;entryDy=0;" source="vOoToVETaaVY2huyyPpC-3">
          <mxGeometry as="geometry" relative="1" height="50" width="50">
            <mxPoint as="sourcePoint" y="895" x="570" />
            <mxPoint as="targetPoint" y="750" x="570" />
          </mxGeometry>
        </mxCell>
        <mxCell id="vOoToVETaaVY2huyyPpC-15" value="" parent="1" edge="1" target="vOoToVETaaVY2huyyPpC-1" style="endArrow=none;html=1;entryX=1;entryY=0.5;entryDx=0;entryDy=0;exitX=0;exitY=0.5;exitDx=0;exitDy=0;" source="vOoToVETaaVY2huyyPpC-6">
          <mxGeometry as="geometry" relative="1" height="50" width="50">
            <mxPoint as="sourcePoint" y="850" x="360" />
            <mxPoint as="targetPoint" y="849.5" x="194" />
          </mxGeometry>
        </mxCell>
        <mxCell id="vOoToVETaaVY2huyyPpC-16" value="Title" parent="1" style="ellipse;whiteSpace=wrap;html=1;align=center;" vertex="1">
          <mxGeometry as="geometry" y="360" x="220" height="30" width="70" />
        </mxCell>
        <mxCell id="vOoToVETaaVY2huyyPpC-17" value="Instructor Number" parent="1" style="ellipse;whiteSpace=wrap;html=1;align=center;fontStyle=4;" vertex="1">
          <mxGeometry as="geometry" y="300" x="180" height="30" width="110" />
        </mxCell>
        <mxCell id="vOoToVETaaVY2huyyPpC-18" value="Department" parent="1" style="ellipse;whiteSpace=wrap;html=1;align=center;" vertex="1">
          <mxGeometry as="geometry" y="290" x="80" height="30" width="80" />
        </mxCell>
        <mxCell id="vOoToVETaaVY2huyyPpC-20" value="Name" parent="1" style="ellipse;shape=doubleEllipse;margin=3;whiteSpace=wrap;html=1;align=center;" vertex="1">
          <mxGeometry as="geometry" y="340" x="30" height="30" width="80" />
        </mxCell>
        <mxCell id="vOoToVETaaVY2huyyPpC-21" value="" parent="1" edge="1" target="vOoToVETaaVY2huyyPpC-2" style="endArrow=none;html=1;rounded=0;exitX=0.5;exitY=1;exitDx=0;exitDy=0;" source="vOoToVETaaVY2huyyPpC-20">
          <mxGeometry as="geometry" relative="1">
            <mxPoint as="sourcePoint" y="470" x="210" />
            <mxPoint as="targetPoint" y="427" x="110" />
          </mxGeometry>
        </mxCell>
        <mxCell id="vOoToVETaaVY2huyyPpC-22" value="" parent="1" edge="1" style="endArrow=none;html=1;rounded=0;exitX=0.5;exitY=1;exitDx=0;exitDy=0;" source="vOoToVETaaVY2huyyPpC-18">
          <mxGeometry as="geometry" relative="1">
            <mxPoint as="sourcePoint" y="380" x="80" />
            <mxPoint as="targetPoint" y="429" x="138" />
          </mxGeometry>
        </mxCell>
        <mxCell id="vOoToVETaaVY2huyyPpC-23" value="" parent="1" edge="1" target="vOoToVETaaVY2huyyPpC-2" style="endArrow=none;html=1;rounded=0;entryX=0.67;entryY=0;entryDx=0;entryDy=0;entryPerimeter=0;" source="vOoToVETaaVY2huyyPpC-17">
          <mxGeometry as="geometry" relative="1">
            <mxPoint as="sourcePoint" y="332" x="220" />
            <mxPoint as="targetPoint" y="439" x="148" />
          </mxGeometry>
        </mxCell>
        <mxCell id="vOoToVETaaVY2huyyPpC-24" value="" parent="1" edge="1" style="endArrow=none;html=1;rounded=0;" source="vOoToVETaaVY2huyyPpC-16">
          <mxGeometry as="geometry" relative="1">
            <mxPoint as="sourcePoint" y="342.01" x="218.04999999999995" />
            <mxPoint as="targetPoint" y="430" x="180" />
          </mxGeometry>
        </mxCell>
        <mxCell id="vOoToVETaaVY2huyyPpC-25" value="Prerequisites" parent="1" style="ellipse;whiteSpace=wrap;html=1;align=center;" vertex="1">
          <mxGeometry as="geometry" y="370" x="540" height="30" width="90" />
        </mxCell>
        <mxCell id="vOoToVETaaVY2huyyPpC-26" value="Course Number" parent="1" style="ellipse;whiteSpace=wrap;html=1;align=center;fontStyle=4;" vertex="1">
          <mxGeometry as="geometry" y="290" x="654" height="30" width="110" />
        </mxCell>
        <mxCell id="vOoToVETaaVY2huyyPpC-28" value="Syllabus" parent="1" style="ellipse;whiteSpace=wrap;html=1;align=center;dashed=1;" vertex="1">
          <mxGeometry as="geometry" y="315" x="550" height="25" width="90" />
        </mxCell>
        <mxCell id="vOoToVETaaVY2huyyPpC-29" value="Credits" parent="1" style="ellipse;whiteSpace=wrap;html=1;align=center;" vertex="1">
          <mxGeometry as="geometry" y="520" x="594" height="30" width="70" />
        </mxCell>
        <mxCell id="vOoToVETaaVY2huyyPpC-30" value="Title" parent="1" style="ellipse;whiteSpace=wrap;html=1;align=center;" vertex="1">
          <mxGeometry as="geometry" y="330" x="750" height="30" width="70" />
        </mxCell>
        <mxCell id="vOoToVETaaVY2huyyPpC-31" value="" parent="1" edge="1" target="vOoToVETaaVY2huyyPpC-4" style="endArrow=none;html=1;rounded=0;exitX=0.5;exitY=1;exitDx=0;exitDy=0;entryX=0.32;entryY=0;entryDx=0;entryDy=0;entryPerimeter=0;" source="vOoToVETaaVY2huyyPpC-26">
          <mxGeometry as="geometry" relative="1">
            <mxPoint as="sourcePoint" y="320" x="700" />
            <mxPoint as="targetPoint" y="427" x="714" />
          </mxGeometry>
        </mxCell>
        <mxCell id="vOoToVETaaVY2huyyPpC-32" value="" parent="1" edge="1" target="vOoToVETaaVY2huyyPpC-4" style="endArrow=none;html=1;rounded=0;exitX=0.386;exitY=1;exitDx=0;exitDy=0;entryX=0.5;entryY=0;entryDx=0;entryDy=0;exitPerimeter=0;" source="vOoToVETaaVY2huyyPpC-30">
          <mxGeometry as="geometry" relative="1">
            <mxPoint as="sourcePoint" y="330" x="719" />
            <mxPoint as="targetPoint" y="440" x="706" />
          </mxGeometry>
        </mxCell>
        <mxCell id="vOoToVETaaVY2huyyPpC-33" value="" parent="1" edge="1" target="vOoToVETaaVY2huyyPpC-29" style="endArrow=none;html=1;rounded=0;entryX=1;entryY=0;entryDx=0;entryDy=0;exitX=0.26;exitY=1;exitDx=0;exitDy=0;exitPerimeter=0;" source="vOoToVETaaVY2huyyPpC-4">
          <mxGeometry as="geometry" relative="1">
            <mxPoint as="sourcePoint" y="470" x="700" />
            <mxPoint as="targetPoint" y="518" x="640" />
          </mxGeometry>
        </mxCell>
        <mxCell id="vOoToVETaaVY2huyyPpC-34" value="" parent="1" edge="1" target="vOoToVETaaVY2huyyPpC-4" style="endArrow=none;html=1;rounded=0;entryX=0.25;entryY=0;entryDx=0;entryDy=0;" source="vOoToVETaaVY2huyyPpC-28">
          <mxGeometry as="geometry" relative="1">
            <mxPoint as="sourcePoint" y="330" x="719" />
            <mxPoint as="targetPoint" y="428" x="680" />
          </mxGeometry>
        </mxCell>
        <mxCell id="vOoToVETaaVY2huyyPpC-35" value="" parent="1" edge="1" target="vOoToVETaaVY2huyyPpC-4" style="endArrow=none;html=1;rounded=0;entryX=0;entryY=0.25;entryDx=0;entryDy=0;" source="vOoToVETaaVY2huyyPpC-25">
          <mxGeometry as="geometry" relative="1">
            <mxPoint as="sourcePoint" y="349.6654950223924" x="615.3406707690335" />
            <mxPoint as="targetPoint" y="438" x="690" />
          </mxGeometry>
        </mxCell>
        <mxCell id="vOoToVETaaVY2huyyPpC-37" value="Course Number" parent="1" style="ellipse;whiteSpace=wrap;html=1;align=center;fontStyle=4;" vertex="1">
          <mxGeometry as="geometry" y="940" x="40" height="30" width="100" />
        </mxCell>
        <mxCell id="vOoToVETaaVY2huyyPpC-38" value="Year" parent="1" style="ellipse;whiteSpace=wrap;html=1;align=center;" vertex="1">
          <mxGeometry as="geometry" y="710" x="70" height="30" width="80" />
        </mxCell>
        <mxCell id="vOoToVETaaVY2huyyPpC-39" value="Section Number" parent="1" style="ellipse;whiteSpace=wrap;html=1;align=center;fontStyle=4;" vertex="1">
          <mxGeometry as="geometry" y="970" x="120" height="30" width="100" />
        </mxCell>
        <mxCell id="vOoToVETaaVY2huyyPpC-41" value="Instructors" parent="1" style="ellipse;whiteSpace=wrap;html=1;align=center;" vertex="1">
          <mxGeometry as="geometry" y="760" x="30" height="30" width="80" />
        </mxCell>
        <mxCell id="vOoToVETaaVY2huyyPpC-43" value="Semester" parent="1" style="ellipse;whiteSpace=wrap;html=1;align=center;" vertex="1">
          <mxGeometry as="geometry" y="740" x="140" height="30" width="80" />
        </mxCell>
        <mxCell id="vOoToVETaaVY2huyyPpC-44" value="" parent="1" edge="1" target="vOoToVETaaVY2huyyPpC-39" style="endArrow=none;html=1;entryX=0.5;entryY=0;entryDx=0;entryDy=0;exitX=0.5;exitY=1;exitDx=0;exitDy=0;" source="vOoToVETaaVY2huyyPpC-1">
          <mxGeometry as="geometry" relative="1" height="50" width="50">
            <mxPoint as="sourcePoint" y="860" x="373.5" />
            <mxPoint as="targetPoint" y="860" x="204" />
          </mxGeometry>
        </mxCell>
        <mxCell id="vOoToVETaaVY2huyyPpC-45" value="" parent="1" edge="1" target="vOoToVETaaVY2huyyPpC-37" style="endArrow=none;html=1;exitX=0.5;exitY=1;exitDx=0;exitDy=0;entryX=0.5;entryY=0;entryDx=0;entryDy=0;">
          <mxGeometry as="geometry" relative="1" height="50" width="50">
            <mxPoint as="sourcePoint" y="870" x="104" />
            <mxPoint as="targetPoint" y="940" x="102" />
          </mxGeometry>
        </mxCell>
        <mxCell id="vOoToVETaaVY2huyyPpC-46" value="" parent="1" edge="1" target="vOoToVETaaVY2huyyPpC-1" style="endArrow=none;html=1;entryX=0.25;entryY=0;entryDx=0;entryDy=0;exitX=0.5;exitY=1;exitDx=0;exitDy=0;">
          <mxGeometry as="geometry" relative="1" height="50" width="50">
            <mxPoint as="sourcePoint" y="790" x="80" />
            <mxPoint as="targetPoint" y="890" x="136" />
          </mxGeometry>
        </mxCell>
        <mxCell id="vOoToVETaaVY2huyyPpC-47" value="" parent="1" edge="1" style="endArrow=none;html=1;exitX=0.5;exitY=1;exitDx=0;exitDy=0;" source="vOoToVETaaVY2huyyPpC-38">
          <mxGeometry as="geometry" relative="1" height="50" width="50">
            <mxPoint as="sourcePoint" y="740" x="150" />
            <mxPoint as="targetPoint" y="830" x="130" />
          </mxGeometry>
        </mxCell>
        <mxCell id="vOoToVETaaVY2huyyPpC-48" value="" parent="1" edge="1" target="vOoToVETaaVY2huyyPpC-1" style="endArrow=none;html=1;exitX=0;exitY=1;exitDx=0;exitDy=0;entryX=0.75;entryY=0;entryDx=0;entryDy=0;" source="vOoToVETaaVY2huyyPpC-43">
          <mxGeometry as="geometry" relative="1" height="50" width="50">
            <mxPoint as="sourcePoint" y="740" x="203" />
            <mxPoint as="targetPoint" y="828" x="180" />
          </mxGeometry>
        </mxCell>
        <mxCell id="vOoToVETaaVY2huyyPpC-49" value="Student Id" parent="1" style="ellipse;whiteSpace=wrap;html=1;align=center;fontStyle=4;" vertex="1">
          <mxGeometry as="geometry" y="920" x="610" height="30" width="100" />
        </mxCell>
        <mxCell id="vOoToVETaaVY2huyyPpC-50" value="Program" parent="1" style="ellipse;whiteSpace=wrap;html=1;align=center;" vertex="1">
          <mxGeometry as="geometry" y="910" x="730" height="30" width="80" />
        </mxCell>
        <mxCell id="vOoToVETaaVY2huyyPpC-51" value="Name" parent="1" style="ellipse;whiteSpace=wrap;html=1;align=center;" vertex="1">
          <mxGeometry as="geometry" y="750" x="570" height="30" width="80" />
        </mxCell>
        <mxCell id="vOoToVETaaVY2huyyPpC-52" value="" parent="1" edge="1" target="vOoToVETaaVY2huyyPpC-3" style="endArrow=none;html=1;entryX=0.33;entryY=0;entryDx=0;entryDy=0;entryPerimeter=0;" source="vOoToVETaaVY2huyyPpC-51">
          <mxGeometry as="geometry" relative="1" height="50" width="50">
            <mxPoint as="sourcePoint" y="730" x="632" />
            <mxPoint as="targetPoint" y="830" x="688" />
          </mxGeometry>
        </mxCell>
        <mxCell id="vOoToVETaaVY2huyyPpC-54" value="" parent="1" edge="1" target="vOoToVETaaVY2huyyPpC-49" style="endArrow=none;html=1;entryX=0.5;entryY=0;entryDx=0;entryDy=0;">
          <mxGeometry as="geometry" relative="1" height="50" width="50">
            <mxPoint as="sourcePoint" y="869.9960796430586" x="674.4735219837862" />
            <mxPoint as="targetPoint" y="921.59" x="743.53" />
          </mxGeometry>
        </mxCell>
        <mxCell id="vOoToVETaaVY2huyyPpC-55" value="" parent="1" edge="1" target="vOoToVETaaVY2huyyPpC-50" style="endArrow=none;html=1;entryX=0.4;entryY=-0.033;entryDx=0;entryDy=0;exitX=0.75;exitY=1;exitDx=0;exitDy=0;entryPerimeter=0;" source="vOoToVETaaVY2huyyPpC-3">
          <mxGeometry as="geometry" relative="1" height="50" width="50">
            <mxPoint as="sourcePoint" y="879.9960796430587" x="684.4735219837862" />
            <mxPoint as="targetPoint" y="930" x="670" />
          </mxGeometry>
        </mxCell>
        <mxCell id="vOoToVETaaVY2huyyPpC-56" value="" parent="1" edge="1" style="endArrow=none;dashed=1;html=1;">
          <mxGeometry as="geometry" relative="1" height="50" width="50">
            <mxPoint as="sourcePoint" y="772.5" x="595" />
            <mxPoint as="targetPoint" y="773" x="625" />
          </mxGeometry>
        </mxCell>
        <mxCell id="vOoToVETaaVY2huyyPpC-57" value="Timing" parent="1" style="ellipse;whiteSpace=wrap;html=1;align=center;" vertex="1">
          <mxGeometry as="geometry" y="740" x="230" height="30" width="65" />
        </mxCell>
        <mxCell id="vOoToVETaaVY2huyyPpC-60" value="Classroom" parent="1" style="ellipse;whiteSpace=wrap;html=1;align=center;fontStyle=4;" vertex="1">
          <mxGeometry as="geometry" y="930" x="180" height="30" width="100" />
        </mxCell>
        <mxCell id="vOoToVETaaVY2huyyPpC-61" value="" parent="1" edge="1" target="vOoToVETaaVY2huyyPpC-60" style="endArrow=none;html=1;exitX=0.75;exitY=1;exitDx=0;exitDy=0;entryX=0.5;entryY=0;entryDx=0;entryDy=0;" source="vOoToVETaaVY2huyyPpC-1">
          <mxGeometry as="geometry" relative="1" height="50" width="50">
            <mxPoint as="sourcePoint" y="880" x="154" />
            <mxPoint as="targetPoint" y="980" x="175" />
          </mxGeometry>
        </mxCell>
        <mxCell id="vOoToVETaaVY2huyyPpC-62" value="" parent="1" edge="1" target="vOoToVETaaVY2huyyPpC-1" style="endArrow=none;html=1;exitX=0.262;exitY=0.933;exitDx=0;exitDy=0;entryX=0.92;entryY=-0.025;entryDx=0;entryDy=0;exitPerimeter=0;entryPerimeter=0;" source="vOoToVETaaVY2huyyPpC-57">
          <mxGeometry as="geometry" relative="1" height="50" width="50">
            <mxPoint as="sourcePoint" y="775.6066017177982" x="161.7157287525381" />
            <mxPoint as="targetPoint" y="840" x="179" />
          </mxGeometry>
        </mxCell>
        <mxCell id="vOoToVETaaVY2huyyPpC-63" value="" parent="1" edge="1" target="vOoToVETaaVY2huyyPpC-5" style="endArrow=none;html=1;entryX=0.083;entryY=0.6;entryDx=0;entryDy=0;entryPerimeter=0;">
          <mxGeometry as="geometry" relative="1" height="50" width="50">
            <mxPoint as="sourcePoint" y="456" x="194" />
            <mxPoint as="targetPoint" y="457" x="370" />
          </mxGeometry>
        </mxCell>
        <mxCell id="vOoToVETaaVY2huyyPpC-64" value="" parent="1" edge="1" style="endArrow=none;html=1;entryX=0.59;entryY=1;entryDx=0;entryDy=0;entryPerimeter=0;exitX=0.575;exitY=0.083;exitDx=0;exitDy=0;exitPerimeter=0;">
          <mxGeometry as="geometry" relative="1" height="50" width="50">
            <mxPoint as="sourcePoint" y="629.98" x="720" />
            <mxPoint as="targetPoint" y="470" x="720" />
          </mxGeometry>
        </mxCell>
        <mxCell id="vOoToVETaaVY2huyyPpC-65" value="" parent="1" edge="1" style="endArrow=none;html=1;entryX=1;entryY=0.5;entryDx=0;entryDy=0;">
          <mxGeometry as="geometry" relative="1" height="50" width="50">
            <mxPoint as="sourcePoint" y="856" x="374.5" />
            <mxPoint as="targetPoint" y="856" x="194" />
          </mxGeometry>
        </mxCell>
        <mxCell id="vOoToVETaaVY2huyyPpC-66" value="1" parent="1" style="text;html=1;strokeColor=none;fillColor=none;align=center;verticalAlign=middle;whiteSpace=wrap;rounded=0;" vertex="1">
          <mxGeometry as="geometry" y="454" x="270" height="20" width="40" />
        </mxCell>
        <mxCell id="vOoToVETaaVY2huyyPpC-67" value="1" parent="1" style="text;html=1;strokeColor=none;fillColor=none;align=center;verticalAlign=middle;whiteSpace=wrap;rounded=0;" vertex="1">
          <mxGeometry as="geometry" y="450" x="554" height="20" width="40" />
        </mxCell>
        <mxCell id="vOoToVETaaVY2huyyPpC-68" value="1" parent="1" style="text;html=1;strokeColor=none;fillColor=none;align=center;verticalAlign=middle;whiteSpace=wrap;rounded=0;" vertex="1">
          <mxGeometry as="geometry" y="740" x="700" height="20" width="40" />
        </mxCell>
        <mxCell id="vOoToVETaaVY2huyyPpC-69" value="M" parent="1" style="text;html=1;strokeColor=none;fillColor=none;align=center;verticalAlign=middle;whiteSpace=wrap;rounded=0;" vertex="1">
          <mxGeometry as="geometry" y="530" x="709" height="20" width="40" />
        </mxCell>
        <mxCell id="vOoToVETaaVY2huyyPpC-72" value="1" parent="1" style="text;html=1;strokeColor=none;fillColor=none;align=center;verticalAlign=middle;whiteSpace=wrap;rounded=0;" vertex="1">
          <mxGeometry as="geometry" y="855" x="255" height="20" width="40" />
        </mxCell>
        <mxCell id="vOoToVETaaVY2huyyPpC-73" value="1" parent="1" style="text;html=1;strokeColor=none;fillColor=none;align=center;verticalAlign=middle;whiteSpace=wrap;rounded=0;" vertex="1">
          <mxGeometry as="geometry" y="850" x="575" height="20" width="40" />
        </mxCell>
      </root>
    </mxGraphModel>
  </diagram>
</mxfile>
